<svg width="898" height="628" viewBox="0 0 898 628" fill="none" xmlns="http://www.w3.org/2000/svg">
<path d="M688.489 351.314L801.626 464.451C806.313 469.137 806.313 476.735 801.626 481.422L783.065 499.983L764.503 518.545C759.817 523.231 752.219 523.231 747.533 518.545L634.395 405.408C629.709 400.721 622.111 400.721 617.425 405.408L547.221 475.611C539.541 483.292 526.422 477.631 526.741 466.774L533.102 250.021L739.008 255.157C749.552 255.42 754.652 268.181 747.194 275.638L688.489 334.343C683.803 339.03 683.803 346.628 688.489 351.314Z" fill="#2980B9"/>
<rect x="322" width="361" height="135" rx="32" fill="#2980B9" fill-opacity="0.5"/>
<rect x="380" y="53" width="29.52" height="29.52" rx="14.76" fill="#2980B9"/>
<rect x="425.92" y="53" width="200.08" height="29.52" rx="14.76" fill="#2980B9"/>
<rect y="162" width="444" height="354" rx="32" fill="#2980B9" fill-opacity="0.5"/>
<rect x="35" y="239" width="45" height="45" rx="22.5" fill="#2980B9"/>
<rect x="105" y="239" width="305" height="45" rx="22.5" fill="#2980B9"/>
<rect x="35" y="317" width="45" height="45" rx="22.5" fill="#2980B9"/>
<rect x="105" y="317" width="305" height="45" rx="22.5" fill="#2980B9"/>
<rect x="35" y="395" width="45" height="45" rx="22.5" fill="#2980B9"/>
<rect x="105" y="395" width="305" height="45" rx="22.5" fill="#2980B9"/>
</svg>
